<svg fill="none" height="65" viewBox="0 0 177 65" width="177" xmlns="http://www.w3.org/2000/svg" xmlns:xlink="http://www.w3.org/1999/xlink"><clipPath id="a"><path d="m0 0h177v65h-177z"/></clipPath><g clip-path="url(#a)"><path d="m89.7232 52.0991c-2.1898-.0337-3.9754-.2695-5.3567-.7075-1.3476-.438-2.4257-1.0444-3.2343-1.8193-.7748-.8085-1.3139-1.7687-1.6171-2.8805-.2695-1.1454-.4043-2.4257-.4043-3.8407v-29.2598l7.5298-1.2129v28.9567c0 .6738.0505 1.2802.1516 1.8193.1011.539.2864.9938.5559 1.3644.3032.3706.7243.6738 1.2634.9096.539.2359 1.2633.3875 2.173.4549z" fill="#000"/><path d="m102.63 51.5937h-7.5295v-26.5815h7.5295zm.708-34.2628c0 1.3813-.455 2.4762-1.365 3.2848-.876.7748-1.92 1.1623-3.1329 1.1623-1.2128 0-2.2741-.3875-3.1837-1.1623-.876-.8086-1.3139-1.9035-1.3139-3.2848s.4379-2.4594 1.3139-3.2343c.9096-.8085 1.9709-1.2128 3.1837-1.2128 1.2129 0 2.2569.4043 3.1329 1.2128.91.7749 1.365 1.853 1.365 3.2343z" fill="#000"/><path d="m124.313 37.4944c0-2.4257-.32-4.1439-.96-5.1546-.607-1.0107-1.668-1.516-3.184-1.516-.472 0-.96.0337-1.465.101-.506.0337-.994.0843-1.466.1516v20.5173h-7.53v-25.6718c.64-.1685 1.382-.3369 2.224-.5054.876-.2021 1.785-.3706 2.729-.5054.977-.1684 1.971-.2863 2.981-.3537 1.011-.1011 2.005-.1516 2.982-.1516 1.92 0 3.47.2527 4.649.758 1.213.4717 2.207 1.0444 2.982 1.7182 1.078-.7749 2.308-1.3813 3.689-1.8192 1.415-.438 2.712-.657 3.891-.657 2.123 0 3.858.3032 5.205.9096 1.381.5728 2.476 1.3982 3.285 2.4763.808 1.078 1.364 2.3583 1.668 3.8406.303 1.4824.454 3.1332.454 4.9525v15.0089h-7.529v-14.0993c0-2.4257-.32-4.1439-.961-5.1546-.606-1.0107-1.667-1.516-3.183-1.516-.405 0-.977.101-1.718.3032-.708.2021-1.297.4548-1.769.758.236.7749.387 1.6003.455 2.4762.067.8423.101 1.7519.101 2.7289v14.5036h-7.53z" fill="#000"/><path d="m152.022 38.5051c0-2.3583.353-4.4134 1.061-6.1653.741-1.7856 1.701-3.2679 2.88-4.4471 1.18-1.1791 2.527-2.0719 4.043-2.6783 1.55-.6065 3.133-.9097 4.751-.9097 3.773 0 6.754 1.1623 8.944 3.487 2.19 2.2909 3.285 5.6767 3.285 10.1575 0 .438-.017.9265-.05 1.4655-.034.5054-.068.9602-.102 1.3645h-17.08c.168 1.5497.892 2.7794 2.173 3.6891 1.28.9096 2.998 1.3644 5.154 1.3644 1.381 0 2.729-.1179 4.043-.3537 1.348-.2696 2.443-.5896 3.285-.9602l1.01 6.1148c-.404.2021-.943.4042-1.617.6064-.673.2021-1.431.3706-2.274.5053-.808.1685-1.684.3032-2.628.4043-.943.1011-1.886.1516-2.83.1516-2.392 0-4.48-.3537-6.266-1.0612-1.752-.7075-3.217-1.6677-4.396-2.8805-1.146-1.2466-2.005-2.7121-2.578-4.3966-.539-1.6845-.808-3.5038-.808-5.4578zm17.687-2.8805c-.034-.6401-.152-1.2634-.354-1.8698-.168-.6064-.455-1.1455-.859-1.6171-.37-.4717-.859-.8591-1.465-1.1623-.573-.3032-1.297-.4548-2.173-.4548-.843 0-1.567.1516-2.173.4548-.607.2695-1.112.6401-1.516 1.1117-.405.4717-.725 1.0276-.961 1.6677-.202.6064-.353 1.2297-.454 1.8698z" fill="#000"/><path d="m173.341 55.9425 1.562-.2516v1.6251h1.877v1.3h-1.877v1.9396c0 .3285.056.5906.168.7863.119.1958.353.2936.702.2936.168 0 .339-.014.514-.0419.182-.035.346-.0804.493-.1363l.22 1.2161c-.189.0769-.399.1433-.629.1992-.231.056-.514.0839-.849.0839-.427 0-.78-.0559-1.059-.1677-.28-.1188-.504-.2796-.671-.4823-.168-.2097-.287-.4613-.357-.7549-.063-.2935-.094-.6185-.094-.975z" fill="#6e6e6e"/><path d="m172.183 60.0629c0 .4333-.063.8317-.189 1.1952-.125.3564-.307.664-.545.9226-.237.2516-.524.4473-.86.5871-.328.1398-.698.2097-1.111.2097-.405 0-.776-.0699-1.111-.2097-.329-.1398-.612-.3355-.849-.5871-.238-.2586-.423-.5662-.556-.9226-.133-.3635-.199-.7619-.199-1.1952 0-.4334.066-.8283.199-1.1848.14-.3564.328-.6605.566-.9121.245-.2516.531-.4473.86-.5871.335-.1398.699-.2097 1.09-.2097.399 0 .762.0699 1.09.2097.336.1398.623.3355.86.5871.238.2516.423.5557.556.9121.133.3565.199.7514.199 1.1848zm-1.594 0c0-.4823-.097-.8598-.293-1.1324-.189-.2795-.461-.4193-.818-.4193-.356 0-.632.1398-.828.4193-.196.2726-.294.6501-.294 1.1324 0 .4822.098.8667.294 1.1532.196.2796.472.4194.828.4194.357 0 .629-.1398.818-.4194.196-.2865.293-.671.293-1.1532z" fill="#6e6e6e"/><path d="m164.231 60.0316c0-1.0065-.37-1.5098-1.111-1.5098-.161 0-.322.021-.483.0629-.153.042-.279.0944-.377.1573v2.8412c.077.014.175.028.293.042.119.007.249.0105.388.0105.427 0 .748-.1468.965-.4404.217-.2935.325-.6815.325-1.1637zm1.594.0419c0 .4403-.067.8387-.2 1.1952-.125.3565-.311.6605-.555.9121-.245.2517-.545.4474-.902.5872-.356.1328-.762.1992-1.216.1992-.189 0-.388-.0105-.598-.0315-.202-.014-.405-.0349-.608-.0629-.196-.028-.384-.0594-.566-.0944-.182-.0419-.342-.0838-.482-.1258v-7.7059l1.562-.2516v2.7468c.175-.0768.356-.1362.545-.1782.189-.0419.392-.0629.608-.0629.392 0 .738.0699 1.038.2097.301.1328.552.325.755.5766.203.2517.356.5557.461.9122.105.3494.158.7409.158 1.1742z" fill="#6e6e6e"/><path d="m159.598 58.6999c-.14-.0349-.304-.0699-.493-.1048-.189-.0419-.391-.0629-.608-.0629-.098 0-.217.0105-.356.0314-.133.014-.235.0315-.304.0525v4.2146h-1.563v-5.2211c.28-.0979.609-.1887.986-.2726.384-.0909.811-.1363 1.279-.1363.084 0 .185.007.304.021.119.0069.238.0209.357.0419.118.014.237.0349.356.0629.119.021.22.0489.304.0839z" fill="#6e6e6e"/><path d="m149.89 60.1153c0-.4893.073-.9157.22-1.2791.154-.3705.353-.678.597-.9226.245-.2447.525-.4299.839-.5557.322-.1258.65-.1887.986-.1887.783 0 1.401.2411 1.855.7234.455.4753.682 1.1777.682 2.1073 0 .0909-.004.1923-.011.3041-.007.1048-.014.1992-.021.2831h-3.543c.035.3215.185.5766.451.7653.265.1887.622.2831 1.069.2831.287 0 .566-.0245.839-.0734.279-.0559.506-.1223.681-.1992l.21 1.2686c-.084.0419-.196.0839-.336.1258-.139.0419-.297.0769-.471.1049-.168.0349-.35.0629-.546.0838-.195.021-.391.0315-.587.0315-.496 0-.929-.0734-1.3-.2202-.363-.1468-.667-.346-.912-.5976-.238-.2586-.416-.5627-.535-.9121-.111-.3495-.167-.7269-.167-1.1323zm3.669-.5976c-.007-.1328-.031-.2621-.073-.388-.035-.1258-.095-.2376-.178-.3354-.077-.0979-.179-.1783-.305-.2412-.118-.0629-.269-.0943-.45-.0943-.175 0-.325.0314-.451.0943-.126.0559-.231.1328-.315.2307-.084.0978-.15.2131-.199.3459-.042.1259-.073.2552-.094.388z" fill="#6e6e6e"/><path d="m145.408 59.6646c-.139.5312-.29 1.059-.45 1.5832-.154.5242-.319 1.0519-.493 1.5831h-1.216c-.126-.2936-.263-.643-.409-1.0484-.147-.4054-.301-.8458-.462-1.3211-.153-.4822-.314-.989-.482-1.5202-.161-.5382-.318-1.0799-.472-1.625h1.646c.056.2516.116.5277.179.8282.069.2936.139.5976.209.9122.077.3145.154.6325.231.954.084.3145.168.6186.252.9122.09-.3076.178-.6221.262-.9436.091-.3215.174-.6361.251-.9436.084-.3145.161-.6151.231-.9017.077-.2935.143-.5661.199-.8177h1.132c.056.2516.119.5242.189.8177.07.2866.143.5872.22.9017.077.3075.158.6221.241.9436.084.3215.172.636.263.9436.083-.2936.167-.5977.251-.9122.084-.3215.161-.6395.231-.954.077-.3146.147-.6186.21-.9122.069-.3005.132-.5766.188-.8282h1.625c-.153.5451-.314 1.0868-.482 1.625-.161.5312-.321 1.038-.482 1.5202-.154.4753-.308.9157-.462 1.3211-.146.4054-.283.7548-.408 1.0484h-1.217c-.174-.5312-.346-1.0589-.513-1.5831-.168-.5242-.322-1.052-.462-1.5832z" fill="#6e6e6e"/><path d="m138.697 57.3162c-.314 1.0624-.643 2.0584-.985 2.988-.343.9296-.717 1.8312-1.122 2.7049-.147.3146-.294.5802-.44.7968-.147.2237-.308.4054-.483.5452-.174.1468-.374.2516-.597.3145-.217.0699-.472.1049-.766.1049-.244 0-.471-.0245-.681-.0734-.203-.0419-.371-.0909-.503-.1468l.272-1.2476c.161.0559.304.0943.43.1153s.259.0315.398.0315c.28 0 .493-.0769.64-.2307.154-.1468.283-.353.388-.6186-.357-.6989-.713-1.4817-1.069-2.3484-.357-.8737-.692-1.8523-1.007-2.9356h1.657c.069.2726.15.5696.241.8911.098.3146.199.6361.304.9646.105.3215.209.636.314.9436.112.3075.217.5871.315.8387.091-.2516.185-.5312.283-.8387.098-.3076.192-.6221.283-.9436.098-.3285.189-.65.273-.9646.09-.3215.171-.6185.241-.8911z" fill="#6e6e6e"/><path d="m131.15 60.0316c0-1.0065-.371-1.5098-1.111-1.5098-.161 0-.322.021-.483.0629-.153.042-.279.0944-.377.1573v2.8412c.077.014.175.028.293.042.119.007.249.0105.388.0105.427 0 .748-.1468.965-.4404.217-.2935.325-.6815.325-1.1637zm1.594.0419c0 .4403-.067.8387-.2 1.1952-.126.3565-.311.6605-.555.9121-.245.2517-.546.4474-.902.5872-.356.1328-.762.1992-1.216.1992-.189 0-.388-.0105-.598-.0315-.202-.014-.405-.0349-.608-.0629-.196-.028-.384-.0594-.566-.0944-.182-.0419-.343-.0838-.482-.1258v-7.7059l1.562-.2516v2.7468c.175-.0768.356-.1362.545-.1782.189-.0419.391-.0629.608-.0629.392 0 .738.0699 1.038.2097.301.1328.552.325.755.5766.203.2517.356.5557.461.9122.105.3494.158.7409.158 1.1742z" fill="#6e6e6e"/><g fill="#5eac24"><path d="m32.3852 0c8.6502 0 16.783 3.36869 22.8999 9.48544 6.1166 6.11666 9.4853 14.24936 9.4853 22.89966s-3.3687 16.7832-9.4855 22.8998c-6.1167 6.1168-14.2493 9.4855-22.8997 9.4855s-16.7831-3.3687-22.89976-9.4855c-6.11687-6.1166-9.48544-14.2493-9.48544-22.8998 0-8.6506 3.36857-16.783 9.48544-22.89966 6.11686-6.11662 14.24936-9.48544 22.89976-9.48544zm0 3.41563c-15.9995 0-28.96957 12.97007-28.96957 28.96957 0 15.9994 12.97007 28.9695 28.96957 28.9695 15.9994 0 28.9695-12.9701 28.9695-28.9695 0-15.9995-12.9701-28.96957-28.9695-28.96957z"/><path d="m40.2525 8.33296c-1.165-1.2412-3.8318-3.39937-7.8452-3.39937-3.979 0-6.6029 2.06831-7.7598 3.25979-.0386.04808-.6586.84792-.1744 2.01402l7.3414 17.6781s.6547 1.585 1.3142 0l7.3186-17.5883c.453-1.17001-.1948-1.96424-.1948-1.96424z"/><path d="m20.6836 9.49318c-1.7139-.05728-5.1496.29943-8.003 3.15632-2.82913 2.8324-3.21902 6.1771-3.19151 7.8517.00691.0618.13655 1.0744 1.31281 1.5626l17.8316 7.4008s1.5963.6663.9343-.9353l-7.3445-17.772c-.5127-1.15785-1.5397-1.26412-1.5397-1.26412z"/><path d="m8.33296 24.6444c-1.2412 1.1651-3.39937 3.8318-3.39937 7.8452 0 3.9791 2.06831 6.603 3.25979 7.7599.04808.0387.84792.6586 2.01402.1743l17.6781-7.3414s1.585-.6547 0-1.3143l-17.5885-7.3185c-1.16995-.4529-1.96404.1948-1.96404.1948z"/><path d="m9.49318 44.0867c-.05728 1.7139.29943 5.1496 3.15632 8.003 2.8324 2.8291 6.1771 3.219 7.8517 3.1915.0618-.0069 1.0744-.1366 1.5626-1.3128l7.4008-17.8316s.6663-1.5963-.9353-.9343l-17.772 7.3445c-1.15813.5126-1.26412 1.5397-1.26412 1.5397z"/><path d="m24.6446 56.4374c1.1651 1.2412 3.8319 3.3994 7.8453 3.3994 3.979 0 6.6029-2.0683 7.7599-3.2597.0386-.0481.6585-.8479.1743-2.0141l-7.3415-17.6781s-.6547-1.5851-1.3142 0l-7.3187 17.5884c-.4526 1.1699.1949 1.9641.1949 1.9641z"/><path d="m44.087 55.2771c1.7139.0572 5.1496-.2995 8.003-3.1563 2.8291-2.8324 3.2189-6.1772 3.1914-7.8517-.0069-.0619-.1365-1.0744-1.3128-1.5626l-17.8315-7.4009s-1.5963-.6662-.9343.9354l7.3444 17.7719c.5129 1.1579 1.5398 1.2642 1.5398 1.2642z"/><path d="m56.4372 40.2524c1.2412-1.1651 3.3993-3.8318 3.3993-7.8453 0-3.979-2.0683-6.6029-3.2596-7.7599-.0481-.0386-.848-.6585-2.0141-.1744l-17.6782 7.3415s-1.585.6547 0 1.3142l17.5885 7.3187c1.17.4528 1.9641-.1948 1.9641-.1948z"/><path d="m55.2773 20.6836c.0573-1.7139-.2994-5.1496-3.1563-8.003-2.8324-2.82913-6.1772-3.21902-7.8517-3.19151-.0618.00691-1.0744.13655-1.5626 1.31281l-7.4008 17.8316s-.6663 1.5963.9353.9343l17.772-7.3445c1.1578-.5126 1.2641-1.5397 1.2641-1.5397z"/></g></g></svg>